<svg width="90" height="72" viewBox="0 0 90 72" fill="none" xmlns="http://www.w3.org/2000/svg">
<path d="M34.6967 38.4934C34.6967 40.8608 35.2165 42.6784 35.8956 43.7779C36.7861 45.2182 38.114 45.8283 39.4681 45.8283C41.2145 45.8283 42.8122 45.3948 45.8909 41.1366C48.3576 37.7237 51.264 32.9328 53.2195 29.9294L56.5314 24.841C58.8319 21.3073 61.4945 17.379 64.5478 14.7161C67.0397 12.5428 69.7284 11.3354 72.4341 11.3354C76.9771 11.3354 81.3043 13.968 84.6162 18.9055C88.2405 24.3128 90 31.1239 90 38.1526C90 42.3311 89.1766 45.4013 87.775 47.8271C86.421 50.1729 83.7818 52.5165 79.3425 52.5165V45.8283C83.1437 45.8283 84.0923 42.3354 84.0923 38.3381C84.0923 32.6419 82.7642 26.3201 79.8385 21.8033C77.762 18.5991 75.0713 16.6415 72.1111 16.6415C68.9093 16.6415 66.3327 19.0561 63.4371 23.3622C61.8978 25.6497 60.3173 28.4375 58.543 31.583L56.5895 35.0437C52.6653 42.0012 51.6714 43.5859 49.7094 46.2012C46.2704 50.781 43.3341 52.5165 39.4681 52.5165C34.8822 52.5165 31.982 50.5306 30.1862 47.5381C28.72 45.0995 28 41.9 28 38.2541L34.6967 38.4934Z" fill="#0081FB"/>
<path d="M33.2803 19.3775C36.3507 14.6452 40.7813 11.3354 45.8631 11.3354C48.8064 11.3354 51.7321 12.2066 54.7873 14.7011C58.129 17.4284 61.6908 21.9195 66.1345 29.3215L67.7281 31.9776C71.5742 38.3856 73.7626 41.682 75.0433 43.2369C76.6907 45.2332 77.8442 45.8283 79.3426 45.8283C83.1438 45.8283 84.0924 42.3354 84.0924 38.3381L90.0001 38.1526C90.0001 42.3311 89.1767 45.4013 87.7751 47.8271C86.4211 50.1729 83.7819 52.5165 79.3426 52.5165C76.5829 52.5165 74.138 51.9171 71.4343 49.3664C69.3558 47.4088 66.9259 43.931 65.0565 40.8046L59.4959 31.5162C56.7061 26.8548 54.1467 23.3794 52.6657 21.8052C51.0726 20.1128 49.0242 18.0687 45.7556 18.0687C43.1102 18.0687 40.8634 19.9254 38.9833 22.7648L33.2803 19.3775Z" fill="url(#paint0_linear_4852_6485)"/>
<path d="M57.0509 49.5238C56.8093 49.3704 56.3019 48.8417 55.9252 48.096C55.8253 47.7593 55.7368 47.4156 55.6485 47.0191C55.6149 46.8084 55.6039 46.5788 55.5264 45.9775" stroke="black" stroke-width="2" stroke-linecap="round"/>
<path d="M42.5982 52.9692C42.7644 55.5413 42.5123 60.2816 42.3182 64.7435C42.2513 66.2816 42.2553 68.4692 41.8977 69.6367C41.5402 70.8042 40.8684 70.8867 40.1234 70.8662C39.3785 70.8458 38.5807 70.7198 36.8682 70.59" stroke="black" stroke-width="2" stroke-linecap="round"/>
<path d="M79.5207 52.5874C79.3108 57.7075 79.0083 67.7064 79.5877 68.8081C80.0433 69.2912 80.8271 69.6197 81.7258 69.7889C82.6246 69.9582 83.6146 69.9582 84.6346 69.831" stroke="black" stroke-width="2" stroke-linecap="round"/>
<path d="M47.0735 6.81C47.047 6.83599 46.8086 6.78324 46.3687 6.60369C45.9105 6.41664 45.6451 5.96965 45.504 5.52358C45.3416 5.00998 45.6509 4.52642 45.9124 4.2066C46.5067 3.47956 47.485 3.4435 48.2938 3.42211C48.6715 3.41213 49.0494 3.65069 49.2916 3.75487C49.493 3.8415 49.1099 3.16754 49.1158 2.76796C49.1227 2.30996 49.3705 1.85858 49.6518 1.47182C49.913 1.1128 50.3281 1.00147 50.7531 1.00002C51.8777 0.996185 52.767 1.6403 53.5234 2.28999C53.7011 2.44265 53.7797 2.64988 53.8981 2.65066C54.6199 2.65544 55.1548 1.67533 56.6562 1.39286C57.8408 1.16998 58.701 1.6925 59.0286 1.96694C59.3579 2.2428 59.1468 2.8332 59.1706 3.16696C59.2464 4.23025 61.3739 1.76751 61.7273 1.60696C62.0764 1.44839 62.5024 1.66822 62.9472 1.96236C64.0757 2.70873 64.2889 3.60982 64.478 3.85742C65.2433 4.8596 67.0405 2.23589 68.2939 2.18598C68.7427 2.16811 69.0254 2.59804 69.2615 2.96463C69.4725 3.29224 69.3015 3.77852 69.1854 4.07946C68.8515 4.94425 70.8397 2.6503 71.9806 2.27517C72.2741 2.17867 72.5446 2.22066 72.7759 2.31162C73.7483 2.69395 73.8747 4.13115 74.0101 4.87565C74.2508 6.19835 76.8197 4.71815 77.4712 5.07726C77.8853 5.30551 77.8474 5.96281 77.7879 6.44083C77.7294 6.91115 77.328 7.24999 76.9884 7.52522C76.609 7.72249 76.1269 7.8548 75.5936 7.93355C75.3381 7.96032 75.1133 7.96032 74.921 7.96032" stroke="black" stroke-width="2" stroke-linecap="round"/>
<path d="M23.8574 31.2724C23.6797 31.3531 22.8558 31.8054 19.0964 32.7242C17.8393 33.0314 16.4599 32.5945 14.9834 32.0321C13.777 31.5726 12.469 31.1441 11.5172 30.9577C10.5862 30.7754 9.93984 30.4656 9.41841 30.2752C9.17173 30.1851 8.78027 30.0867 8.78027 30.0867" stroke="black" stroke-width="2" stroke-linecap="round"/>
<path d="M4.61344 33.1511C4.3757 33.1511 3.63813 33.1631 2.89945 32.8939C2.60096 32.7851 2.57717 32.4564 2.55821 32.2724C2.53644 32.0611 2.69037 31.884 2.81685 31.7521C2.95902 31.6037 3.6647 31.3868 4.48364 31.107C4.7187 31.0266 4.55059 30.9794 4.3834 30.9669C3.75595 30.9198 3.23906 30.9359 2.67213 30.7548C2.19388 30.6021 1.81633 30.0942 1.58801 29.5748C1.5323 29.4481 1.53836 29.3319 1.57098 29.2358C1.70027 28.8551 2.20075 28.7767 2.73824 28.6472C3.5505 28.4516 4.06166 28.4995 4.3894 28.4746C5.03142 28.4257 2.22157 28.3157 1.53753 28.0599C1.27687 27.9624 1.14548 27.7488 1.05947 27.5986C1.01415 27.5194 0.99782 27.4179 1.00023 27.322C1.01367 26.7869 1.89538 26.3772 2.48464 26.1615C2.9924 25.9755 3.69536 25.9893 4.27401 26.0231C4.47219 26.0347 4.76586 25.9867 4.91083 25.8491C5.83356 24.9732 4.4413 22.974 4.28681 22.401C4.1791 22.0015 4.04151 20.8823 4.04177 19.9465C4.04197 19.2162 4.54562 18.8383 4.97434 18.5484C5.57701 18.1407 6.24066 18.4297 6.4851 18.5079C6.87535 18.9532 7.17274 19.6254 7.19994 19.8998C7.20919 20.0365 7.20919 20.1682 7.29986 20.5214" stroke="black" stroke-width="2" stroke-linecap="round"/>
<path d="M56.292 45.8479C56.529 45.8801 57.6518 45.9455 58.5309 45.8851C59.1456 45.8428 59.7513 45.7692 60.5592 45.6587C60.8449 45.6196 61.2335 45.6254 61.389 45.6842C61.8294 45.8508 61.0255 46.7075 60.8704 47.4397C60.6515 48.4733 60.2971 49.0409 59.932 49.5684C59.8427 49.6974 59.7993 49.8549 59.6891 49.9646C59.2061 50.4456 58.3105 50.2919 57.7974 50.3678C57.6057 50.3961 58.7651 50.5299 59.6811 50.757C60.4936 50.9585 60.4893 52.2423 60.875 52.9217C61.1915 53.4793 61.5515 54.5073 62.1552 56.0069C62.4856 56.8277 62.6612 57.4632 62.5901 58.0667C62.5106 58.7424 61.5927 59.2652 60.9236 59.9441C60.4247 60.4502 60.0887 61.1101 59.6249 62.0757C59.5204 62.2932 59.4696 62.4347 59.3703 62.4405C58.7553 62.4768 58.641 61.4628 58.3099 60.7666C58.1008 60.4247 57.8678 60.0588 57.6472 59.6785C57.547 59.4951 57.4704 59.331 57.3584 59.0957" stroke="black" stroke-width="2" stroke-linecap="round"/>
<path d="M57.6621 51.6304C57.563 51.9433 57.387 52.658 57.2756 53.3752C57.1706 54.0517 57.1982 54.8605 56.9382 55.6432C56.8771 55.8607 56.8224 56.1186 56.7996 56.3321C56.7768 56.5455 56.7875 56.7067 56.7986 56.8728" stroke="black" stroke-width="2" stroke-linecap="round"/>
<path d="M45.7552 18.0687C43.1098 18.0687 40.8631 19.9254 38.983 22.7648C36.3247 26.7773 34.6967 32.7538 34.6967 38.4934C34.6967 40.8608 35.2165 42.6784 35.8956 43.7779L30.1862 47.5381C28.72 45.0995 28 41.9 28 38.2541C28 31.624 29.8198 24.7139 33.2802 19.3775C36.3506 14.6452 40.7812 11.3354 45.863 11.3354L45.7552 18.0687Z" fill="url(#paint1_linear_4852_6485)"/>
<defs>
<linearGradient id="paint0_linear_4852_6485" x1="41.1519" y1="34.3697" x2="83.7912" y2="36.5232" gradientUnits="userSpaceOnUse">
<stop stop-color="#0064E1"/>
<stop offset="0.4" stop-color="#0064E1"/>
<stop offset="0.83" stop-color="#0073EE"/>
<stop offset="1" stop-color="#0082FB"/>
</linearGradient>
<linearGradient id="paint1_linear_4852_6485" x1="37.7023" y1="41.3047" x2="37.7023" y2="25.5656" gradientUnits="userSpaceOnUse">
<stop stop-color="#0082FB"/>
<stop offset="1" stop-color="#0064E0"/>
</linearGradient>
</defs>
</svg>
