<svg width="24" height="24" viewBox="0 0 24 24" fill="none" xmlns="http://www.w3.org/2000/svg">
<g clip-path="url(#clip0_3450_15484)">
<mask id="mask0_3450_15484" style="mask-type:luminance" maskUnits="userSpaceOnUse" x="0" y="0" width="24" height="24">
<path d="M24 0H0V24H24V0Z" fill="white"/>
</mask>
<g mask="url(#mask0_3450_15484)">
<path d="M0 12C0 13.403 0.243075 14.7486 0.685537 16H23.3145C23.7569 14.7486 24 13.403 24 12C24 10.5971 23.7569 9.25145 23.3145 8H0.685537C0.243075 9.25145 0 10.5971 0 12Z" fill="white"/>
<path d="M0.683594 7.99999H23.3125C21.6649 3.33979 17.2225 0 11.998 0C6.77359 0 2.33124 3.33979 0.683594 7.99999Z" fill="#F0263C"/>
<path d="M23.3125 16H0.683594C2.33127 20.6602 6.77359 24 11.998 24C17.2225 24 21.6649 20.6602 23.3125 16Z" fill="#F0263C"/>
</g>
</g>
<defs>
<clipPath id="clip0_3450_15484">
<rect width="24" height="24" fill="white"/>
</clipPath>
</defs>
</svg>
