<svg width="24" height="24" viewBox="0 0 24 24" fill="none" xmlns="http://www.w3.org/2000/svg">
<g clip-path="url(#clip0_3450_15462)">
<mask id="mask0_3450_15462" style="mask-type:luminance" maskUnits="userSpaceOnUse" x="0" y="0" width="24" height="24">
<path d="M24 0H0V24H24V0Z" fill="white"/>
</mask>
<g mask="url(#mask0_3450_15462)">
<path d="M12 24C18.6274 24 24 18.6274 24 12C24 5.37259 18.6274 0 12 0C5.37259 0 0 5.37259 0 12C0 18.6274 5.37259 24 12 24Z" fill="#191977"/>
<path d="M12 3V2.50001H10.0527L12 1.20184V0.600937L9.15134 2.50001H7.49999V2.3991L11.0356 0.0419617C10.6596 0.0718867 10.2886 0.118987 9.92301 0.182812L7.49999 1.7982V0.875625C7.33127 0.94395 7.16478 1.01614 7 1.09177V3H12Z" fill="white"/>
<path d="M4.99941 2.2561C4.67597 2.48887 4.36457 2.73693 4.06641 2.99999H4.99941V2.2561Z" fill="white"/>
<path d="M7 8H7.49999V6.20184L10.1972 8H11.0986L7.49999 5.60094V5.50003H9.15134L12 7.3991V6.7982L10.0527 5.50003H12V5H7V8Z" fill="white"/>
<path d="M2.25711 5C2.13936 5.16365 2.02577 5.33034 1.91623 5.49999C1.90821 5.5124 1.90026 5.52489 1.89231 5.53734C1.69014 5.85286 1.50253 6.17829 1.33003 6.51309L2.84964 5.50003H4.501V5.60094L0.902344 8H1.80369L4.50096 6.2018V8H5.00095V5H2.25711Z" fill="white"/>
<path d="M7.5 2.50001H9.15135L12 0.600937V0C11.6751 0 11.3541 0.01665 11.0357 0.0419625L7.5 2.39906V2.50001Z" fill="#F0263C"/>
<path d="M7.5 5.5V5.60091L11.0986 7.99997H12V7.39907L9.15135 5.5H7.5Z" fill="#F0263C"/>
<path d="M4.50191 5.60091V5.5H2.85057L1.33096 6.51306C1.08463 6.99115 0.868775 7.4872 0.6875 7.99997H0.903312L4.50191 5.60091Z" fill="#F0263C"/>
<path d="M5.0017 7.99998H7.00169V4.99997H12.0017V2.99999H7.00169V1.09177C6.29534 1.4161 5.62619 1.80667 5.0017 2.2561V2.99999H4.0687C3.39286 3.59617 2.78532 4.267 2.25781 4.99997H5.00174L5.0017 7.99998Z" fill="#F0263C"/>
<path d="M6.00002 16L4 18L6.00002 20L8.00005 18L6.00002 16Z" fill="white"/>
<path d="M14.5 7.5L13.25 8.74999L14.5 9.99997L15.75 8.74999L14.5 7.5Z" fill="white"/>
<path d="M18 3.50003L16.75 4.75002L18 6.00001L19.25 4.75002L18 3.50003Z" fill="white"/>
<path d="M18 17.5L16.75 18.75L18 20L19.25 18.75L18 17.5Z" fill="white"/>
<path d="M21 7L19.75 8.25002L21 9.50001L22.2501 8.25002L21 7Z" fill="white"/>
<path d="M19 10.5L18.25 11.25L19 12L19.75 11.25L19 10.5Z" fill="white"/>
</g>
</g>
<defs>
<clipPath id="clip0_3450_15462">
<rect width="24" height="24" fill="white"/>
</clipPath>
</defs>
</svg>
