<svg width="24" height="24" viewBox="0 0 24 24" fill="none" xmlns="http://www.w3.org/2000/svg">
<g clip-path="url(#clip0_3450_15632)">
<mask id="mask0_3450_15632" style="mask-type:luminance" maskUnits="userSpaceOnUse" x="0" y="0" width="24" height="24">
<path d="M24 0H0V24H24V0Z" fill="white"/>
</mask>
<g mask="url(#mask0_3450_15632)">
<path d="M22.3906 6H1.60939C0.587662 7.76546 0 9.81349 0 12C0 14.1865 0.587662 16.2345 1.60939 18H22.3906C23.4123 16.2345 24 14.1865 24 12C24 9.81349 23.4123 7.76546 22.3906 6Z" fill="#FFD400"/>
<path d="M12 0C7.55909 0 3.68447 2.41421 1.60938 6H22.3906C20.3155 2.41421 16.4409 0 12 0Z" fill="#F0263C"/>
<path d="M12 24C16.4409 24 20.3155 21.5858 22.3906 18H1.60938C3.68451 21.5858 7.55909 24 12 24Z" fill="#F0263C"/>
<path d="M1.5 13.0071L2.50001 12.6738V12.1663L1.5 12.4988V13.0071Z" fill="white"/>
<path d="M5.70409 13.0071C5.60077 13.2977 5.32609 13.5071 5.00002 13.5071C4.5858 13.5071 4.25002 13.1713 4.25002 12.7571C4.25002 12.3429 4.5858 12.0071 5.00002 12.0071V10.5071H3.00004V11.5071H1.5V12.4988L2.50001 12.1662V12.0067L3 12.0071V13.5071C3 14.4459 3.64774 15.2315 4.52014 15.4467L5.00002 14.5071L5.47991 15.4467C6.35227 15.2314 7.00005 14.4459 7.00005 13.5071V13.0071H5.70409Z" fill="#F0263C"/>
<path d="M1.5 14.5071H2.50001V13.1734L1.5 13.5059V14.5071Z" fill="white"/>
<path d="M2.50001 10.0071H1.5V11.5071H2.50001V10.0071Z" fill="white"/>
<path d="M7.5 14.5071H8.50001V13.5071L7.5 13.173V14.5071Z" fill="white"/>
<path d="M7.5 12.6738L8.50001 13.0071V12.0071L7.5 12.0063V12.6738Z" fill="white"/>
<path d="M8.50001 10.0071H7.5V11.5071H8.50001V10.0071Z" fill="white"/>
<path d="M2.50001 14.5071H1.5V15.0071H2.50001V14.5071Z" fill="#2D25C5"/>
<path d="M8.50001 14.5071H7.5V15.0071H8.50001V14.5071Z" fill="#2D25C5"/>
<path d="M2.50001 14.0071H1.5V14.5071H2.50001V14.0071Z" fill="#CC9500"/>
<path d="M8.50001 14.0071H7.5V14.5071H8.50001V14.0071Z" fill="#CC9500"/>
<path d="M2.50001 10.0071H1.5V10.5071H2.50001V10.0071Z" fill="#CC9500"/>
<path d="M8.50001 10.0071H7.5V10.5071H8.50001V10.0071Z" fill="#CC9500"/>
<path d="M3.49999 8.50714H3V9.00713H3.49999V8.50714Z" fill="#CC9500"/>
<path d="M6.99999 8.50714H6.5V9.00713H6.99999V8.50714Z" fill="#CC9500"/>
<path d="M5.50001 8.50714H4.5V9.00713H5.50001V8.50714Z" fill="#CC9500"/>
<path d="M6.49999 10.0071L7.00001 9.00711H3L3.49999 10.0071H6.49999Z" fill="#F0263C"/>
<path d="M7 11.5071V12.0059L7.49999 12.0063L8.5 12.0071V11.5071H7.49999H7Z" fill="#F0263C"/>
<path d="M7.5 13.173L8.50001 13.5071V13.0071L7.5 12.6738V13.173Z" fill="#F0263C"/>
<path d="M6.99999 12.0059V10.5071H5V12.0071C5.41422 12.0071 5.75 12.3429 5.75 12.7571C5.75 12.8452 5.732 12.9286 5.70406 13.0071H6.99999V12.0059Z" fill="white"/>
<path d="M4.51953 15.4467C4.67351 15.4847 4.83367 15.5071 4.99942 15.5071C5.16517 15.5071 5.32529 15.4847 5.47931 15.4467L4.99942 14.5071L4.51953 15.4467Z" fill="white"/>
<path d="M4.25 12.7571C4.25 13.1714 4.58578 13.5071 5 13.5071C5.32606 13.5071 5.60075 13.2978 5.70406 13.0072C5.732 12.9286 5.75 12.8453 5.75 12.7571C5.75 12.3429 5.41422 12.0071 5 12.0071C4.58578 12.0071 4.25 12.3429 4.25 12.7571Z" fill="#2D25C5"/>
<path d="M3 12.7571V13.5071C3 14.4459 3.64774 15.2315 4.52014 15.4467L5.00002 14.5071V13.5071C4.5858 13.5071 4.25002 13.1713 4.25002 12.7571L3 12.7571Z" fill="#CC9500"/>
</g>
</g>
<defs>
<clipPath id="clip0_3450_15632">
<rect width="24" height="24" fill="white"/>
</clipPath>
</defs>
</svg>
