<svg width="24" height="24" viewBox="0 0 24 24" fill="none" xmlns="http://www.w3.org/2000/svg">
<g clip-path="url(#clip0_3450_15686)">
<mask id="mask0_3450_15686" style="mask-type:luminance" maskUnits="userSpaceOnUse" x="0" y="0" width="24" height="24">
<path d="M24 0H0V24H24V0Z" fill="white"/>
</mask>
<g mask="url(#mask0_3450_15686)">
<path d="M12 24C18.6274 24 24 18.6274 24 12C24 5.37259 18.6274 0 12 0C5.37259 0 0 5.37259 0 12C0 18.6274 5.37259 24 12 24Z" fill="#191977"/>
<path d="M8.99892 7.59633L3.26603 3.7744C3.0356 4.01894 2.81547 4.273 2.60603 4.53625L8.99892 8.7982V9.00002H5.69618L1.49408 6.19862C1.33175 6.49191 1.18283 6.79341 1.04498 7.10106L3.8934 8.99999H0.376995C0.292619 9.32778 0.224706 9.66197 0.167969 10H9.99889V0.169037C9.6609 0.225774 9.32667 0.293687 8.99888 0.378062L8.99892 7.59633Z" fill="white"/>
<path d="M0.167969 14C0.224706 14.338 0.292619 14.6722 0.376995 15H3.8934L1.04502 16.8989C1.18287 17.2066 1.33178 17.5081 1.49412 17.8014L5.69618 15H8.99892V15.2018L2.60603 19.4638C2.81547 19.727 3.0356 19.9811 3.26603 20.2256L8.99892 16.4037V23.6219C9.3267 23.7063 9.6609 23.7742 9.99893 23.831V14L0.167969 14Z" fill="white"/>
<path d="M23.831 10C23.7743 9.66201 23.7063 9.32778 23.622 8.99999H20.1055L22.9539 7.10106C22.8161 6.79337 22.6672 6.49191 22.5048 6.19862L18.3027 9.00002H15V8.7982L21.3929 4.53625C21.1834 4.27304 20.9633 4.01897 20.7329 3.7744L15 7.59633V0.378062C14.6722 0.293687 14.338 0.225774 14 0.169037V9.99996L23.831 10Z" fill="white"/>
<path d="M14 14V23.8309C14.338 23.7742 14.6722 23.7063 15 23.6219V16.4036L20.7329 20.2255C20.9633 19.981 21.1834 19.7269 21.3929 19.4637L15 15.2018V15H18.3027L22.5048 17.8014C22.6671 17.508 22.8161 17.2066 22.9539 16.8989L20.1055 15H23.6219C23.7063 14.6722 23.7742 14.338 23.8309 13.9999L14 14Z" fill="white"/>
<path d="M9.00095 8.99999V8.79817L2.60804 4.53625C2.19356 5.0572 1.82054 5.61239 1.49609 6.19859L5.69821 8.99999H9.00095Z" fill="#F0263C"/>
<path d="M22.5048 6.19859C22.1804 5.61235 21.8074 5.05717 21.3929 4.53625L15 8.79821V9.00003H18.3027L22.5048 6.19859Z" fill="#F0263C"/>
<path d="M1.49609 17.8014C1.82054 18.3876 2.19352 18.9428 2.60801 19.4637L9.0009 15.2018V15H5.69816L1.49609 17.8014Z" fill="#F0263C"/>
<path d="M15 15V15.2018L21.3929 19.4638C21.8074 18.9428 22.1803 18.3876 22.5048 17.8014L18.3027 15L15 15Z" fill="#F0263C"/>
<path d="M23.8309 10H14V0.16905C13.3492 0.0598125 12.6818 0 12 0C11.3182 0 10.6508 0.0598125 10 0.16905V9.99997H0.16905C0.0598125 10.6507 0 11.3182 0 12C0 12.6818 0.0598125 13.3492 0.16905 14H9.99998V23.8309C10.6507 23.9401 11.3182 24 12 24C12.6817 24 13.3492 23.9401 13.9999 23.8309V14H23.8309C23.9401 13.3492 23.9999 12.6817 23.9999 12C23.9999 11.3182 23.9402 10.6507 23.8309 10Z" fill="#F0263C"/>
</g>
</g>
<defs>
<clipPath id="clip0_3450_15686">
<rect width="24" height="24" fill="white"/>
</clipPath>
</defs>
</svg>
