<svg width="24" height="24" viewBox="0 0 24 24" fill="none" xmlns="http://www.w3.org/2000/svg">
<g clip-path="url(#clip0_3450_15588)">
<mask id="mask0_3450_15588" style="mask-type:luminance" maskUnits="userSpaceOnUse" x="0" y="0" width="24" height="24">
<path d="M24 0H0V24H24V0Z" fill="white"/>
</mask>
<g mask="url(#mask0_3450_15588)">
<path d="M4.9989 2.2561C2.48603 4.06458 0.701895 6.81933 0.167969 10H4.9989V2.2561Z" fill="#F0263C"/>
<path d="M23.8309 10C22.8784 4.32506 17.9456 0 12 0C10.9641 0 9.95887 0.131288 9 0.378075V9.99998L23.8309 10Z" fill="#F0263C"/>
<path d="M0.167969 14C0.701858 17.1806 2.486 19.9354 4.9989 21.7439V14H0.167969Z" fill="#F0263C"/>
<path d="M9 23.6219C9.95887 23.8687 10.9641 24 12 24C17.9456 24 22.8784 19.6749 23.8309 14H9V23.6219Z" fill="#F0263C"/>
<path d="M8 13V23.3145C8.32737 23.4302 8.66026 23.5345 9.00001 23.6219V14H23.8309C23.8862 13.671 23.9275 13.3375 23.9553 13H8Z" fill="white"/>
<path d="M5.99827 13H0.0429688C0.0708313 13.3375 0.112119 13.671 0.167356 14H4.99829V21.7439C5.32008 21.9755 5.65372 22.1912 5.99831 22.3906L5.99827 13Z" fill="white"/>
<path d="M8 11H23.9553C23.9275 10.6625 23.8861 10.329 23.8309 9.99999H9.00001V0.378082C8.66026 0.465532 8.32741 0.569745 8 0.685507V11Z" fill="white"/>
<path d="M5.99831 11V1.60938C5.65376 1.80876 5.32009 2.02454 4.9983 2.2561V9.99997H0.167356C0.112119 10.329 0.0708687 10.6625 0.0429688 11H5.99831Z" fill="white"/>
<path d="M7.99999 11V0.685486C7.30106 0.932611 6.63266 1.24322 6 1.60934V11H0.0447C0.0174375 11.33 0 11.6629 0 12C0 12.3371 0.0174375 12.6699 0.0447 13H6V22.3906C6.6327 22.7568 7.30106 23.0674 7.99999 23.3145V13H23.9553C23.9826 12.67 24 12.3371 24 12C24 11.6629 23.9826 11.3301 23.9553 11L7.99999 11Z" fill="#191977"/>
</g>
</g>
<defs>
<clipPath id="clip0_3450_15588">
<rect width="24" height="24" fill="white"/>
</clipPath>
</defs>
</svg>
