<svg width="24" height="24" viewBox="0 0 24 24" fill="none" xmlns="http://www.w3.org/2000/svg">
<g clip-path="url(#clip0_3450_15604)">
<mask id="mask0_3450_15604" style="mask-type:luminance" maskUnits="userSpaceOnUse" x="0" y="0" width="24" height="24">
<path d="M24 0H0V24H24V0Z" fill="white"/>
</mask>
<g mask="url(#mask0_3450_15604)">
<path d="M24 12C24 5.37259 18.6274 0 12 0C10.5971 0 9.25145 0.243075 8 0.6855V23.3145C9.25141 23.7569 10.5971 24 12 24C18.6274 24 24 18.6274 24 12Z" fill="#F0263C"/>
<path d="M0 12C0 17.2244 3.33979 21.6668 7.99999 23.3144V0.685486C3.33979 2.33316 0 6.77549 0 12Z" fill="#1E5B00"/>
<path d="M8.00002 7C5.51474 7 3.5 9.01472 3.5 11.5C3.5 13.9853 5.51474 16 8.00002 16C10.4853 16 12.5 13.9853 12.5 11.5C12.5 9.01469 10.4853 7 8.00002 7ZM11.4411 12L10.9632 12.2389C10.9315 12.4574 10.8773 12.6703 10.8056 12.8767L11.9141 12.3225C11.8203 12.7693 11.6486 13.1867 11.419 13.5654L10.7865 12.933C10.7251 13.1001 10.6516 13.2625 10.5648 13.4183L10.9698 13.8232L10.2113 13.9316C10.0105 14.171 9.77778 14.371 9.52571 14.5345L10.799 14.3526C10.1329 15.0063 9.23954 15.4257 8.25003 15.4873V14.9835C8.16697 14.9912 8.08402 15 8.00002 15C7.91602 15 7.83307 14.9912 7.75001 14.9835V15.4873C6.76046 15.4257 5.86713 15.0063 5.20098 14.3526L6.47429 14.5345C6.22222 14.371 5.98949 14.171 5.78868 13.9316L5.03024 13.8232L5.43524 13.4183C5.34832 13.2625 5.27486 13.1001 5.21351 12.933L4.58103 13.5654C4.35134 13.1867 4.17967 12.7693 4.08588 12.3225L5.19446 12.8767C5.12276 12.6703 5.06857 12.4574 5.03681 12.2389L4.55898 12L5.00186 11.7786C5.00159 11.7614 5.00002 11.7445 5.00002 11.7272V11.2205L4.01088 11.715C4.00706 11.6434 3.99997 11.5726 3.99997 11.5C3.99997 11.1198 4.05667 10.7532 4.15619 10.4046L4.99998 10.9671V10.3662L4.56393 10.0755L4.99998 9.93017V9.40454L4.49782 9.57122C4.63893 9.316 4.80858 9.07922 4.99998 8.86217V8.49992H5.36298C6.00903 7.93277 6.83804 7.5694 7.75001 7.51259V8.49992H8.24999V7.51259C9.16196 7.5694 9.99093 7.93277 10.6369 8.49992H11V8.86225C11.1911 9.079 11.3605 9.31544 11.5015 9.57021L11 9.40304V9.93014L11.436 10.0755L11 10.3662V10.9671L11.8438 10.4045C11.9433 10.7531 12 11.1198 12 11.4999C12 11.5725 11.9929 11.6433 11.9891 11.715L11 11.2204V11.7272C11 11.7444 10.9984 11.7613 10.9981 11.7785L11.4411 12Z" fill="#FFD400"/>
<path d="M9.9837 12H9V11H10V9.5H8.50001V10.5H7.5V9.5H6V11H7.00001V12H6.01631C6.02565 12.0866 6.03855 12.1718 6.05632 12.2551C6.05827 12.2643 6.05948 12.2739 6.06154 12.283C6.1284 12.5795 6.24727 12.8529 6.40552 13.0909C6.42896 13.1262 6.45562 13.1582 6.48075 13.1918C6.60281 13.3551 6.7422 13.5012 6.8994 13.6203C6.99439 13.6923 7.09654 13.752 7.2018 13.8049C7.28209 13.8452 7.36481 13.8798 7.45013 13.9079C7.55078 13.9411 7.65341 13.9688 7.7598 13.9835C7.83855 13.9944 7.91869 14 7.99995 14C8.16248 14 8.32054 13.9775 8.47189 13.9353C8.62327 13.8931 8.76795 13.831 8.90377 13.7518C8.97169 13.7121 9.03735 13.6682 9.10054 13.6203C9.25774 13.5012 9.39713 13.3551 9.51919 13.1918C9.54431 13.1582 9.57101 13.1261 9.59441 13.0909C9.75266 12.8529 9.8715 12.5795 9.9384 12.283C9.94046 12.2739 9.94166 12.2644 9.94361 12.2551C9.96139 12.1718 9.97436 12.0866 9.9837 12ZM7.5 11H8.50001V12H7.5V11ZM8.50001 13.5H7.5V12.5H8.50001V13.5Z" fill="white"/>
<path d="M6.49999 8.99999L6 9.49997H7.5H7.99999L7.5 8.99999L7.99999 8.5H7.75001H6L6.49999 8.99999Z" fill="#F0263C"/>
<path d="M10.5 8.99999L10 9.49997V11V11.5L10.5 11L11 11.5V11.2205V10.9671V10.3662V9.93021V9.49997V9.40311V8.86232V8.5H10.6369H10L10.5 8.99999Z" fill="#F0263C"/>
<path d="M8.50003 8.99999L8 9.49997H8.50003H10L9.5 8.99999L10 8.5H8.25001H8L8.50003 8.99999Z" fill="#F0263C"/>
<path d="M6.00001 11.5V11V9.49997L5.50003 8.99999L6.00001 8.5H5.363H5V8.86221V9.40457V9.49997V9.93021V10.3662V10.9672V11.2205V11.5L5.50003 11L6.00001 11.5Z" fill="#F0263C"/>
<path d="M10.9999 11.5L10.4999 12L9.99991 11.5V11.7273V12H9.9836C9.97426 12.0865 9.96136 12.1718 9.94359 12.2551C9.94164 12.2643 9.94044 12.2739 9.93838 12.283C9.87151 12.5794 9.75264 12.8529 9.59439 13.0909C9.57095 13.1262 9.54429 13.1582 9.51916 13.1918C9.3971 13.3551 9.25771 13.5012 9.10051 13.6203C9.03732 13.6682 8.97166 13.7121 8.90375 13.7518C8.76796 13.831 8.62325 13.8931 8.47186 13.9353C8.32051 13.9775 8.16245 13.9999 7.99992 13.9999C7.91866 13.9999 7.83852 13.9944 7.75977 13.9834C7.65339 13.9687 7.55071 13.9411 7.4501 13.9079C7.36475 13.8798 7.28206 13.8452 7.20178 13.8049C7.09648 13.752 6.99433 13.6923 6.89938 13.6203C6.74218 13.5012 6.60279 13.3551 6.48073 13.1918C6.4556 13.1582 6.4289 13.1261 6.4055 13.0909C6.24725 12.8529 6.12841 12.5794 6.06151 12.283C6.05945 12.2739 6.05825 12.2643 6.0563 12.2551C6.03852 12.1718 6.02563 12.0865 6.01629 12H5.99997V11.7273V11.5L5.49999 12L5 11.5V11.7273C5 11.7445 5.00161 11.7614 5.00184 11.7786C5.00405 11.9337 5.01477 12.0876 5.03679 12.2389C5.06855 12.4574 5.12274 12.6703 5.19444 12.8767C5.20093 12.8954 5.2067 12.9144 5.21352 12.933C5.27487 13.1001 5.34834 13.2625 5.43526 13.4183C5.4782 13.4953 5.5238 13.5709 5.57285 13.6446C5.6399 13.7454 5.7125 13.8406 5.78874 13.9315C5.98951 14.1709 6.22228 14.3709 6.47435 14.5345C6.86131 14.7856 7.29624 14.9413 7.75003 14.9835C7.83309 14.9912 7.91604 15 8.00004 15C8.08404 15 8.16699 14.9912 8.25005 14.9835C8.70387 14.9413 9.1388 14.7856 9.52576 14.5345C9.77784 14.3709 10.0106 14.171 10.2114 13.9315C10.2876 13.8406 10.3602 13.7454 10.4273 13.6446C10.4763 13.5708 10.5219 13.4952 10.5648 13.4183C10.6517 13.2625 10.7252 13.1001 10.7865 12.9329C10.7934 12.9144 10.7992 12.8954 10.8056 12.8767C10.8773 12.6703 10.9315 12.4574 10.9633 12.2389C10.9853 12.0876 10.996 11.9337 10.9982 11.7785C10.9985 11.7614 11.0001 11.7444 11.0001 11.7272L10.9999 11.5ZM6.49989 14.25L6.99988 13.75L7.49986 14.25L6.99988 14.75L6.49989 14.25ZM9.49989 14.25L8.9999 14.75L8.49991 14.25L8.9999 13.75L9.49989 14.25Z" fill="#F0263C"/>
<path d="M8.50001 10.5V9.5H7.99999H7.5V10.5H8.50001Z" fill="#2D25C5"/>
<path d="M8.50001 11H7.5V12H8.50001V11Z" fill="#2D25C5"/>
<path d="M7.00001 12V11H6V11.5V11.7273V12H6.01631H7.00001Z" fill="#2D25C5"/>
<path d="M10 11H9V12H9.9837H10V11.7273V11.5V11Z" fill="#2D25C5"/>
<path d="M8.50001 12.5H7.5V13.5H8.50001V12.5Z" fill="#2D25C5"/>
<path d="M7.99999 8.5L7.5 8.99999L7.99999 9.49997L8.49997 8.99999L7.99999 8.5Z" fill="#FFD400"/>
<path d="M5.99999 8.49997L5.5 8.99996L5.99999 9.49998L6.50001 8.99996L5.99999 8.49997Z" fill="#FFD400"/>
<path d="M5.49999 11L5 11.5L5.49999 12L5.99998 11.5L5.49999 11Z" fill="#FFD400"/>
<path d="M6.99999 13.75L6.5 14.25L6.99999 14.75L7.49997 14.25L6.99999 13.75Z" fill="#FFD400"/>
<path d="M8.99999 13.75L8.5 14.25L8.99999 14.75L9.50001 14.25L8.99999 13.75Z" fill="#FFD400"/>
<path d="M10.5 11L10 11.5L10.5 12L11 11.5L10.5 11Z" fill="#FFD400"/>
<path d="M9.99999 8.49997L9.5 8.99996L9.99999 9.49998L10.5 8.99996L9.99999 8.49997Z" fill="#FFD400"/>
</g>
</g>
<defs>
<clipPath id="clip0_3450_15604">
<rect width="24" height="24" fill="white"/>
</clipPath>
</defs>
</svg>
