<svg width="24" height="24" viewBox="0 0 24 24" fill="none" xmlns="http://www.w3.org/2000/svg">
<g clip-path="url(#clip0_3450_15665)">
<mask id="mask0_3450_15665" style="mask-type:luminance" maskUnits="userSpaceOnUse" x="0" y="0" width="24" height="24">
<path d="M24 0H0V24H24V0Z" fill="white"/>
</mask>
<g mask="url(#mask0_3450_15665)">
<path d="M4.9989 2.2561C2.48603 4.06458 0.701895 6.81933 0.167969 10H4.9989V2.2561Z" fill="#007ACC"/>
<path d="M23.8309 10C22.8784 4.32506 17.9456 0 12 0C10.9641 0 9.95887 0.131288 9 0.378075V9.99998L23.8309 10Z" fill="#007ACC"/>
<path d="M0.167969 14C0.701858 17.1806 2.486 19.9354 4.9989 21.7439V14H0.167969Z" fill="#007ACC"/>
<path d="M9 23.6219C9.95887 23.8687 10.9641 24 12 24C17.9456 24 22.8784 19.6749 23.8309 14H9V23.6219Z" fill="#007ACC"/>
<path d="M23.9553 11C23.9274 10.6625 23.8862 10.329 23.8309 9.99999H9V0.378082C8.66025 0.465532 8.3274 0.569745 7.99999 0.685507C7.30106 0.932632 6.63266 1.24324 6 1.60936C5.65545 1.80874 5.32177 2.02452 4.99999 2.25608V9.99995H0.16905C0.113812 10.3289 0.0725625 10.6625 0.0446625 11C0.0174375 11.3301 0 11.6629 0 12C0 12.3371 0.0174375 12.67 0.0447 13C0.0725625 13.3375 0.11385 13.671 0.169087 14H5.00002V21.7439C5.32181 21.9755 5.65545 22.1912 6.00004 22.3907C6.63274 22.7568 7.3011 23.0674 8.00002 23.3145C8.3274 23.4303 8.66029 23.5345 9.00004 23.622V14.0001H23.831C23.8862 13.6711 23.9275 13.3376 23.9554 13.0001C23.9826 12.67 24.0001 12.3372 24.0001 12.0001C24.0001 11.6629 23.9826 11.3301 23.9553 11Z" fill="#FFD400"/>
</g>
</g>
<defs>
<clipPath id="clip0_3450_15665">
<rect width="24" height="24" fill="white"/>
</clipPath>
</defs>
</svg>
